<?xml version="1.0" encoding="utf-8"?>
<!-- Generator: Adobe Illustrator 19.1.0, SVG Export Plug-In . SVG Version: 6.00 Build 0)  -->
<!DOCTYPE svg PUBLIC "-//W3C//DTD SVG 1.1//EN" "http://www.w3.org/Graphics/SVG/1.1/DTD/svg11.dtd">
<svg version="1.1" id="Layer_1" xmlns="http://www.w3.org/2000/svg" xmlns:xlink="http://www.w3.org/1999/xlink" x="0px" y="0px"
	 width="64px" height="64px" viewBox="0 0 64 64" enable-background="new 0 0 64 64" xml:space="preserve">
<g>
	<path fill="#4B8400" d="M9.1,27.1h5.7v5.5H9.1V27.1z"/>
	<path fill="#4B8400" d="M17.4,14h4.9v2.4h0.1c1.3-2,3.2-2.9,5.5-2.9c5.8,0,8.5,4.7,8.5,10c0,5-2.7,9.6-8.2,9.6
		c-2.3,0-4.3-1-5.6-2.8h-0.1v8.9h-5.1V14z M31.2,23.4c0-3-1.2-6-4.5-6c-3.3,0-4.4,3-4.4,6s1.2,5.9,4.5,5.9
		C30.1,29.3,31.2,26.4,31.2,23.4z"/>
	<path fill="#4B8400" d="M47.3,35c-1.1,3-2.9,4.2-6.4,4.2c-1,0-2.1-0.1-3.1-0.2v-4.2c1,0.1,2,0.2,3,0.2c1.3-0.1,2-1.2,2-2.3
		c0-0.4-0.1-0.8-0.2-1.2L36,14h5.5l4.2,12.7h0.1L49.8,14h5.3L47.3,35z"/>
</g>
<g>
	<path fill="#4B8400" d="M15.2,47h-1.4v-1.5h1.4v-0.6c0-1.5,0.9-2.5,2.8-2.5c0.4,0,0.8,0,1.2,0.1v1.7c-0.3,0-0.6,0-0.8,0
		c-0.6,0-0.9,0.3-0.9,0.9v0.5H19V47h-1.6v6.8h-2.3V47z M20.4,42.3h2.3v11.4h-2.3V42.3z"/>
	<path fill="#4B8400" d="M24.1,48c0.1-2.1,2-2.8,3.9-2.8c1.6,0,3.6,0.4,3.6,2.4v4.3c0,0.8,0.1,1.5,0.3,1.8h-2.3
		c-0.1-0.3-0.1-0.5-0.2-0.8c-0.7,0.8-1.8,1-2.8,1c-1.6,0-2.8-0.8-2.8-2.5c0-3.8,5.6-1.7,5.5-3.6c0-1-0.7-1.1-1.5-1.1
		c-0.9,0-1.4,0.4-1.5,1.2H24.1z M29.3,49.7c-0.4,0.3-1.2,0.4-1.9,0.5c-0.7,0.1-1.3,0.4-1.3,1.2c0,0.8,0.7,1.1,1.4,1.1
		c1.8,0,1.8-1.4,1.8-1.9V49.7z"/>
	<path fill="#4B8400" d="M34.9,51.1c0,1,0.9,1.4,1.7,1.4c0.6,0,1.5-0.3,1.5-1.1c0-0.7-1-0.9-2.6-1.3c-1.3-0.3-2.6-0.7-2.6-2.2
		c0-2.1,1.8-2.7,3.6-2.7c1.8,0,3.5,0.6,3.6,2.6H38c-0.1-0.9-0.7-1.1-1.6-1.1c-0.5,0-1.3,0.1-1.3,0.8c0,0.8,1.3,0.9,2.6,1.2
		c1.3,0.3,2.6,0.8,2.6,2.3c0,2.2-1.9,2.9-3.8,2.9c-1.9,0-3.8-0.7-3.9-2.9H34.9z"/>
	<path fill="#4B8400" d="M41.5,42.3h2.3v6.1l2.9-3h2.7l-3.1,3l3.5,5.2h-2.8l-2.3-3.7l-0.9,0.8v2.8h-2.3V42.3z"/>
</g>
</svg>
